<?xml version="1.0" encoding="UTF-8"?>
<svg id="Layer_1" data-name="Layer 1" xmlns="http://www.w3.org/2000/svg" version="1.1" viewBox="0 0 1024 1024">
  <defs>
    <style>
      .cls-1 {
        fill: #000;
        stroke-width: 0px;
      }
    </style>
  </defs>
  <path class="cls-1" d="M789.21,342.81c8.76,3.38,15.49,6.57,20.87,11.96,4.41,4.42,4.38,4.45-1.26,6.38-.47.16-.92.37-1.59.65,2.43,3.13,6.19,4.53,8.7,7.31,2.11,2.35,5.59,3.79,5.42,7.83-.07,1.56,1.62,1.39,2.57,1.91,4.39,2.38,8.89,4.58,12.16,8.54,3.29,3.99,3.24,4.15-2.15,5.45,5.56,6.36,10.79,12.75,15.4,19.59,2.22,3.3,4.37,6.66,5.82,10.41.64,1.64,2.1,3.47,1.07,5-1.1,1.63-3.02-.51-5.23.02,2.98,4.31,5.86,8.39,8.64,12.54,2.86,4.28,5.54,8.65,7.56,13.44,1.29,3.05,1.09,4.72-2.87,4.72,6.81,9.76,12.39,19.68,15,31.02.3,1.29.48,2.6.68,3.91.55,3.63.51,6.77-5.58,4.67,5.81,11.64,10.54,22.49,13.04,34.21.98,4.57,1.11,9.23,2.16,13.74.78,3.39-2.3,1.8-3.44,2.89,4.13,9.36,8.79,18.58,9.92,28.98.2,1.88,1.04,3.88-2.31,4.21-1.96.19-.98,2-.42,3.18,1.5,3.13,3.39,6.15,4.41,9.43.67,2.18,4.25,5.26-.92,7.07-1.1.39.05,1.71.59,2.44,1.68,2.28,3.47,4.47,5.11,6.77,1.54,2.17,4.38,4.27-.23,6.56-2.25,1.12-.3,2.92.58,4.13,4.87,6.73,9.75,13.5,15.78,19.25,2.64,2.52,2.58,4.09-.55,5.83-1.99,1.1-3.85,2.43-4.46,2.67,5.87,6.54,11.55,13.28,17.7,19.55,3.04,3.1,3.26,4.76-.8,6.72-1.55.75-3.43,1.35-4.43,3.27,19.13,14.18,29.43,33.76,34.1,56.64.39,1.89,3.43,5.69-2.45,5.49-1.57-.05-.26,1.87.03,2.82,3.83,12.46,6.05,25.2,5.08,38.23-2.3,30.99-12.88,58.77-33.11,82.62-.85,1-1.97,1.77-2.97,2.64-.82.72-1.65,1.42-2.81,2.43,9.32,1.4,18.26,1.27,27.76,4.27-6.63,3.12-12.92,3.49-18.95,4.01-13.38,1.14-26.78,2.5-40.24,2.11-2.76-.08-4.42.77-6.08,3.1-4.77,6.67-13.66,6.95-19.36.94-5.37-5.66-7.79-5.64-12.76.11-4.46,5.16-12.58,5.34-17.27.36-2.54-2.69-4.15-5.98-5.94-9.8-1.69,1.56-3.15,3.05-4.75,4.38-6.28,5.18-13.85,4.2-18.56-2.36-12.79-17.8-2.56-45.24,18.89-49.46,8.3-1.63,11.23-8.11,15.67-13.48.46-.56.65-1.51-.03-1.69-3.76-.97-5.8-6.53-10.92-3.96-1.37.69-2.87-.34-4.29-.8-12.86-4.15-23.14-12.17-32.89-22.28.04,3.91-1.14,4.16-3.92,2.53-14.19-8.3-24.03-20.26-30.36-35.27-.38-.91-.5-1.9-1.92-2.73-.19,3.59-.36,6.93-.54,10.27-16.23-17.63-25.18-38.93-30.48-61.75-5.37-23.09-4.47-46.45-.45-69.78-5.12,9.79-8.15,20.27-10.41,30.98-2.26,10.72-1.89,21.77-3.43,32.62-2.64-4.08-1.27-8.65-2.16-13.45-5.82,3.45-11.19,7.33-17.49,9.39-1.47.48-1.52.4-3.77-1.14-.41-.28-1.46.27-2.17.56-3.98,1.62-7.94,3.27-12.87,5.32,1.11-2.22,1.76-3.53,2.42-4.84-9.08,4.14-18.42,6.43-28.32,7.15.7-1.88,3.13-1.32,3.86-3.53-6.53,1.74-12.68,4.53-19.36,3.68-8.8-1.13-17.58,2.3-26.38-.05-2.17-.58-4.11.19-6.23,2.1,10.27,3.5,20.23,6.26,30.42,7.85,26.35,4.12,52.5,2.85,78.45-3.49,4.35-1.06,6.83-2.7,6.92-7.28.01-.69.5-1.21,1.49-1.27,2.92,19.21,9.5,37.02,21.61,53.35-4.34-2.6-8.28-7.06-12.16-13.45-1.03-1.7-1.98-3.46-2.95-5.2q-4.86-8.65-14.25-6.47c-7.95,1.82-15.96,3.07-24.16,2.98-6.63-.08-6.62.04-6.69,6.92-.03,3.33.12,6.66-.85,9.92-.54,1.82.55,4.62-3.34,3.92-1.48-.27-.8,1.82-.82,2.79-.11,5.98.39,11.99-1.45,17.98-1.68,1.01-2.49-2.01-4.5-1.08-.04,6.97,1.2,14.02.16,21.22-.7,4.84-1.85,5.15-5.79,1.62.8,8.93,1.06,16.94-.88,24.88-2.6.69-2.66-2.64-5.32-3.12-1.91,21.25-9.87,39.28-30.16,51.83,56.87,1.33,112.28,3.08,167.55,7.49.01,1.36-.94,1.31-1.71,1.34-13.14.5-26.28,1.06-39.42,1.43-30.74.87-61.48,1.73-92.22,2.43-9.99.23-20-.2-29.99-.05-25.96.39-51.92.94-77.87,1.41-7.99.14-15.96-.22-23.87-1.34-2.07-.29-3.47.27-4.99,1.45-7.64,5.95-13.46,6.15-20.54.1-2.1-1.8-2.94-1.36-4.64.07-5.43,4.56-11.51,4.76-17.71,1.87-2.91-1.36-5.74-1.47-8.91-1.7-10.61-.75-19.91,2.88-29.69,6.1-18.92,6.25-38.5,6.78-58.08,2.92-5.57-1.1-10.38-1.18-14.07,4.12-1.38,1.98-3.54,3.45-5.81,4.64-5.94,3.12-11.23,2.16-15.6-2.91-1.97-2.29-3.25-4.96-4.66-8.03-4.73,5.51-9.63,10.93-17.56,7.98-7.62-2.84-8.3-10.56-10.68-17.45-3.02,2.39-5.75,4.82-8.75,6.85-4.42,2.99-9.07,6.34-14.68,3.29-5.62-3.06-7.57-8.6-8.12-14.6-1.79-19.5,11.37-36.73,31.52-44.08,8.93-3.26,18.27-5.18,27.76-5.14,11.58.04,20.73-3.91,27.27-14.68.27,2.08.44,3.41.61,4.73,2.95,1.99,14.59-16.61,21.9-35.2-2.97,2.16-5.46,3.77-7.31,6.26-1.99,2.67-4.25,5.14-6.12,7.88-1.77,2.59-3.18,5.42-4.92,8.42.58-6.63,5.06-17.14,12.38-28.18,5.8-8.75,10.63-18.02,16.04-28.47-8.55,5.96-14,13.26-20.07,20.17,6.65-21.08,19.64-39.4,26.32-60.65-11.69,8.65-16.31,22.01-22.96,33.99,2.18-13.99,7.41-26.81,14.1-39.1.08-.15.15-.3.24-.44,6.82-10.24,9.13-21.91,10.94-35.17-11.09,9.81-9.94,24.59-18.12,34.88-1.4-3.74.41-7.93-2.01-11.75-5.27,8.9-10.27,17.82-19.27,24.51-.2-2.81-.36-5.1-.53-7.39-3.58,5.48-6.63,11.11-11.1,15.78-4.38,4.58-9.4,8.25-15.29,11.26.05-3.1,1.46-5.73.74-9.47-9.94,14.91-23.67,22.91-40.92,26.73,1.13-2.37,1.94-4.07,2.74-5.75-1.38-1-2.05.09-2.71.65-10.19,8.83-21.93,14.9-35.3,16-11.38.94-21.69,7.01-33.21,6.21-10.85-.75-17.11,3.88-21.19,14.01-2.73,6.78-8.38,11.99-17.83,10.68,4.4,3.93,10.51,4.98,12.04,10.34,1.75,6.11-3.31,8.63-7.91,11.35,4.26,2.42,8.77,2.83,12.91,4.31,7.07,2.53,8.31,5.9,4.05,11.93-4.96,7.03-12.57,9.41-20.51,11-5.06,1.01-10.2,1.35-16.33.86,3.99,4.69,9.36,6.32,12.86,10.74-6.5,5.22-14.16,6.08-21.88,5.67-31.87-1.68-51.66-19.84-62.97-48.11-10.16-25.37-7.53-50.82,2.58-75.67,8.17-20.09,19.95-37.51,38.66-49.34-.18-.44-.22-.85-.4-.92-7.71-2.98-7.74-3.01-1.6-8.8,6.7-6.32,14.08-11.6,22.84-14.95-.24-.4-.39-.98-.76-1.18-5.19-2.82-5.07-2.7-1.34-6.91,6.58-7.43,14.19-13.44,24-17.48-1.4-.68-2.05-1.1-2.76-1.32-3.42-1.06-3.54-2.39-1.1-5.07,5.84-6.42,11.94-12.52,18.74-17.92,1.4-1.11,4.16-2.18.15-3.9-3.19-1.37-1.51-4.14-.61-6.03,2.55-5.4,5.46-10.63,8.47-16.37-3.55.42-4.36-.94-4.13-4.39.51-7.91,3.28-15.08,6.73-23.22-7.02,3.44-5.92-1.06-5.42-4.21,2.05-13.04,7.13-24.82,15.26-35.25.71-.92,1.44-1.83,2.11-2.77.37-.52.65-1.12,1.32-2.3-3.46.23-6.44.42-9.83.64,1.56-5.62,3.84-10.5,6.54-15.21.57-1,1.43-2.08.61-3.21-1.17-1.62-1.76.27-2.65.51-3.02.78-5.4-1.11-7.77-2.55-6-3.63-11.04-8.46-15.98-13.46-.35.44-.6.64-.68.9-.52,1.69,1.35,4.14-.33,4.98-1.8.9-3.6-1.25-5.2-2.28-7.46-4.78-12.82-11.54-17.12-19.15-.88-1.55-1.17-3.41-3.32-1.28-1.7,1.69-2.74-.17-3.77-.93-7.94-5.87-13.81-13.33-17.42-22.59-.61-1.57-.33-4.81-4.01-3.2-1.09.47-1.58-1.42-2.2-2.35-6.43-9.77-9.02-20.59-8.81-32.19.03-1.61,1.13-4.54-2.77-3.01-2.32.91-2.16-1.27-2.47-2.63-1.04-4.62-.35-9.3-.5-13.95-.06-1.72.14-3.21-2.45-3.23-14.1-.08-24.7-6.71-32.63-18.05-5,5.45-6.2,5.48-11.19-.3-7.5-8.67-10.7-18.97-10.94-30.3-.04-1.66,0-3.31,0-5.59-3.3,3.37-3.86,1.49-4.3-1.57-1.03-7.15-.71-14.25.58-21.31-.51-.12-.91-.34-1.05-.23-5.82,4.7-6.42,4.65-8.92-2.83-6.88-20.55-2.98-38.92,11.55-55.02.78-.86,1.57-1.7,2.34-2.56.09-.1.04-.31.12-1-5.36.51-10.64,1.01-16.33,1.56.06-5.39,2.94-9.73,4.87-14.37.85-2.04,2.48-3.91-.64-5.92-2.23-1.44-.35-3.73.59-5.3,6.58-11.05,15.79-19.14,27.67-24.14,2.43-1.02,4.85-2.09,7.63-3.29-3.78-2.33-7.95-2.49-11.58-4.19,10.65-13.78,27.45-20.01,55.66-20.58-1.84-2.14-3.49-4.07-5.8-6.75,16.08-2.56,30.15,1.35,44.06,7.63.66-1.95-.74-3.14-1.37-4.5-.57-1.23-1.51-2.64-.76-3.74.83-1.21,2.49-.46,3.73-.18,12.61,2.78,23.86,8.06,32.63,17.86.31-.26.69-.41.76-.65,1.91-6.33,1.87-6.26,8.11-3.11,11.55,5.83,19.11,15.19,24.04,27.11,7.08-3.76,14.42-5.13,22.21-3.57.62.12,1.62.34,1.87.03,6.56-7.85,14.06-4.06,21.15-1.4,2.57.96,3.78,1.02,5.87-.86,3.37-3.03,7.7-4.46,12.26-5,1.61-.19,3.5-1.27,4.72.14,1.38,1.6-1.58,2.68-1.08,4.65,3.87-1.2,7.67-2.57,11.58-3.54,8.2-2.03,16.3-.88,23.92,2.25,3.59,1.47,4.13.35,5.16-2.58,3.4-9.69,9.57-17.39,17.8-23.5,2.97-2.2,5.1-2.88,5.65,1.87.09.74.51,1.45.88,2.45,8.37-17.79,22.56-27.01,41.22-30.19,1.14,2.36-.79,3.06-1.37,4.26-.55,1.15-1.48,2.12-2.07,3.56,8.16-4.16,16.41-8.03,25.71-10,.72,2.85-2,4.37-2.54,7.13,7.8-2.67,15.42-5.24,23.46-6.07,8.13-.84,16.22-.82,24.45.69-.87,3.45-4.37,4.44-5.68,7.88,8.16-.84,15.98-.46,23.67,1.2,13.73,2.96,25.35,9.65,34.85,20.03,1.89,2.06,2.55,3.33-.6,5.14-3.53,2.03-6.54,4.98-10.13,7.81,6.83,2.91,13.01,6.34,18.04,11.44,3.9,3.95,3.66,4.47-1.44,5.93-1.99.57-5.06.12-5.65,2.29-.55,2.03,2.45,2.79,3.85,4.07,12.27,11.19,20.01,32.63,15.25,49.07-4.27-.87-8.27-3.28-13.28-2.59,5.14,7.38,7.75,15.37,8.66,23.86.31,2.91,1.47,3.24,3.85,2.71,10.63-2.34,21.69-4.39,32.18-2.34,14.17,2.77,28.26-.81,42.23,1.6,1.14.2,2.26.54,3.41.67,3.49.38,5.81,1.17.85,4.9,8.38.42,15.88-.17,23.15,1.47,3.84.86,8.35.39,10.88,4.74.43.73,2.44.61,3.74.76,7.73.9,15.54,1.37,22.83,4.46,1.37.58,4.09.44,1.42,3.46-1.47,1.66,1.34,1.36,2.35,1.54,9.83,1.75,19.57,3.84,28.07,9.44,1.52,1,4.93,1.28,2.9,4.87-.54.96,1.34,1.15,2.09,1.37,4.5,1.3,8.74,3.19,12.77,5.52,2.06,1.19,4.63,2.04,4.41,5.35-.13,1.99,1.93,1.41,3.03,1.83,10.59,4.07,20.79,8.84,29.62,16.14.64.53,1.3,1.04,1.9,1.61,2.43,2.29,5.64,4.67-2.29,6.26ZM371.98,674.41c2.34-4.04,1.48-6.79-3.84-11.69-2.07,9.13-6.54,17.11-10.63,25.25-.51,1.01-.78,2.53-2.14,2.46-1.43-.08-1.32-1.62-1.67-2.71-.88-2.73-1.59-5.59-4.22-7.6-1.87,4.05-3.17,8.09-5.42,11.51-3.98,6.07-8.28,12.05-16.16,13.63.79-1.63,2.25-3.12,1.25-5.48-5.04,6.08-9.81,11.91-17.04,15.23-2.26,1.04-6.1.3-6.61,3.09-.46,2.51,1.05,5.39,1.72,8.1.07.28.28.52.44.79,8.72-5.51,15.34-12.95,20.36-21.88.54,3.31,1.08,6.62,1.69,10.35,8.3-7.23,12.38-16.59,17.62-26.65,1.5,4.81,2.6,8.34,3.77,12.09,11.08-7.64,12.99-19.83,16.51-31.08,2.51,1.08,1.98,4.13,4.42,4.5,1.17,1.11.67,3.19,2.51,4.22,2.38-4.69,4.07-9.38,4.18-15.25-2.05,4.41-3.37,8.38-6.75,11.11ZM243.69,444.68c-2.63-.18-4.08-.31-5.53-.37-15.89-.61-27.86-10.51-29.31-26.36-2-21.85.66-43.43,8.17-64.16,2.65-7.32,7.33-13.72,14.15-17.62,20.5-11.74,46.81-1,48.69,26.78,1.26,18.57.3,37.3.02,55.95-.14,9.28-4.17,16.55-12.59,21.21-4.72,2.61-9.71,3.72-16.2,3.57,2.83,2.4,5,3.3,7.39,3.72,6.85,1.21,13.53.25,20.06-1.82,12.15-3.85,21.25-11.53,27.41-22.62,1.75-3.15,3.34-3.76,6.98-2.33,6.58,2.58,8.51,8.1,10.1,13.82,2.73,9.84.83,19.35-3.77,29.49,7.96-5.8,12.61-12.61,15.1-21.48,2.62,4.31,1.48,8.87,3.31,12.88,8.39-8.84,11.96-18.77,9.58-30.71,5.98,7.78,11.3,15.61,12.17,26.11,10.04-12.02,7.35-25.02,4.67-38.21,7,7.11,13.13,14.53,18.54,23.42,6.11-13.85,6.23-27.01,1.34-40.51,7.56,5.14,13.64,11.36,18.8,18.5.68.94,1.21,2.43,2.38,2.21,1.51-.29,1.44-2.03,1.54-3.28.69-8.88-.08-17.59-3.16-26.03-2.36-6.47-5.83-12.35-9.58-18.14,8.59,5.67,16.88,11.52,23.67,20.17.96-14.52-4.14-25.94-13.49-36.94,11.26,4.98,19.63,12.21,29.03,19.53-4.1-16.57-11.03-30.25-24.96-39.65,7.52,1.44,14.19,4.88,21.9,8.16-6.5-10.42-13.85-18.58-23.75-25.52,6.18-.02,10.99,2.42,16.43,2.88-5.68-11.56-14.34-19.91-23.89-27.69,5.15,1.93,10.29,3.86,16.54,6.2-3.54-6.24-7.31-10.59-11.26-14.81-4.03-4.3-8.62-7.92-14.87-11.68,7.15.48,12.17,3.43,19.03,4.73-7.39-8.11-13.8-15.15-20.77-22.8,4.49.71,7.39,3.87,12.55,3.76-6.71-5.24-9.52-11.37-9.99-18.96-.43-7.05,1.17-13.84,1.24-20.86,2.41,6.69,2.03,14.01,6.18,21.65,1.65-11.19,2.21-21.33,9.47-30.84.09,7.83-.11,14.26,2.19,20.82,2.69-15.21,13.71-33.27,21.91-36.27-4.67,9.45-6.99,24.58-4.93,32.37,10.05-16.83,16.16-36.77,36.94-45.75-1.53,2.92-4.39,3.99-4.83,7.14,4.49-1.21,8.38-3.68,14.14-3.71-7.14,4.25-12.47,8.77-16.84,14.6,12.35-8.8,26.48-11.43,41.08-12.64-11.38,5.65-22.03,12.22-31.06,21.29,12.74-6,25.9-8.25,39.83-5.69-10.47,1.61-20.16,4.92-29.37,12.41,6.06-1.69,10.75-.35,16.85,1.18-2.83.81-4.21,1.34-5.64,1.57-1.36.22-2.83.03-3.21,1.88,9.84.89,19.16,3.73,29.92,6.84-5.46.71-9.43,1.09-13.34,1.77-3.85.66-7.64,1.63-11.46,2.46,9.84,3.11,22.18,11.86,25,17.95-15.59-7.63-31.75-12.74-50.75-11.79,19.48,4.96,41.87,23.01,46.26,36.82-7.72-7.3-16.91-11-26.75-13.41,2.07,1.96,4.28,3.68,6.57,5.26,2.36,1.63,4.35,3.55,6.98,6.76-10.58-4.47-20.54-4.7-30.43-6.07,12.68,8.8,25.57,17.26,32.98,32.73-8.63-7.31-17.66-11.7-27.37-14.82,4.37,4.1,8.64,8.14,12.68,13.65-5.55-2.27-10.21-4.27-14.94-6.08-4.74-1.81-9.54-3.44-14.32-5.15,11.18,10.52,21.03,21.76,27.91,35.85-16.5-10.2-34.07-17.99-47.83-32.34,0,1.06-.16,1.61.02,1.99,4.95,10.53,9.63,21.21,15.92,31.04,6.87,10.75,15.33,19.75,28.15,23.23,14.52,3.94,22.36-4.03,18.87-18.66-.89-3.74-3.21-6.76-4.81-11.4,6.61,4.6,12.33,8.59,18.21,12.68.36-2.01.62-3.52.95-5.37,5.43,3.7,8.24,9.09,12.58,13.58,7.04-18.52-1.39-34.04-8.04-49.83.41-.33.82-.66,1.22-.99,4.59,4.82,9.18,9.64,14.18,14.89,1.1-13.54-3.94-24.34-12.03-34.11,9.24,4.42,17.27,10.12,24.45,18.28,1.2-22.28-8.48-37.99-25.8-50.17,6.37-1.19,12.02.34,18.67,1.53-1.89-2.43-3.06-3.93-4.68-6.02,6.24,1.42,11.78,2.68,17.77,4.05-2.58-11.53-9.09-19.67-17.89-26.1-8.75-6.39-18.97-9.47-30.65-11.97,8.68-2.79,15.88-5.52,24.94-5.15-8.74-8.55-17.98-13.35-29.31-16.66,5.03-2.47,9.17-4.15,13.63-5.29,4.57-1.17,9.21-1.8,14.53-2.17-17-12.2-41.31-13.77-63.29.3,3.6-7.17,8.06-12.95,14.46-18.88-20.41,1.77-36.56,8.8-49.27,24.37.63-6.8,2.83-12.21,6.06-18.18-7.04,2.79-12.11,7.02-17.24,11.08-5.18,4.1-10.13,8.47-14.62,14.64,1.47-8.51,3.33-15.72,7.86-23.51-16.84,9.66-25.82,23.05-29.66,40.47-2.28-4.25-3.12-8.68-4.07-14.12-8.28,14.55-5.41,28.14-.05,42.72-3.55-3.25-6.04-5.7-8.71-7.94-3.98-3.34-8.05-6.68-9.3-12-.81-3.44-2.87-3.79-5.85-3.82-6.32-.05-12.18,2.03-18.52,3.89.99-2.87,3.84-3.82,4.47-6.58-10.8.14-19.62,4.21-27.51,12.33.46-4.05,2.8-7.16-.71-9.73-3.44-2.52-6.36-.29-9.27.99-4.58,2.01-7.89,5.79-11.54,9.2-2.96-7.25-8.45-10.16-15.9-8.58.78,1.51,3.15,1.69,3.25,4.31-17.68-5.95-28.56,4.49-39.14,16.86,2.45-21.19-1.25-34.34-10.51-38.62-.34,5.66.66,11.45-1.63,17.23-6.63-13.94-16.55-23.98-31.3-30.3,2.43,5.86,6.07,10.23,6.78,16.31-12.46-10.35-25.55-18.12-42.08-20.24,4.45,6.12,9.3,11.27,12.63,19.11-18.44-13.65-36.74-16.15-56.23-6.3,7.8,2.33,16.02,3.28,23.62,8.76-31.19,4.2-54.54,16.86-56.55,30.06,10.64-.22,21.31-.75,33.42.13-4.48,2.64-7.72,4.3-10.69,6.36-3,2.08-6.43,3.85-8.06,8.03,5.05-.57,9.7-1.14,14.74.34-25.93,12.57-40.47,32.89-34.57,47.84,7.54-8.75,16.99-14.86,23.72-15.47-9.96,12.25-13.33,26.03-9.35,42.26,4.08-4.7,7.62-8.97,12.21-12.73-10.09,26.32-11.4,34.88-7.05,45.16,7.36-11.69,12.08-16.72,18.52-19.65-.58,1.09-1.15,2.09-1.66,3.12-5.66,11.36-.07,26.1,11.46,30.2,8.6,3.06,14.33-.06,16.01-9.03,1.99-10.59,3.8-21.19,7.95-31.24.92-2.24,2.52-4.32,2.63-7.48-9.67,8.32-20.84,13.31-31.06,21.9,6.69-12.99,13.9-24.04,24.39-34.53-5.73,1.69-8.87,5.29-13.66,6.05,2.76-3.93,5.27-7.51,7.78-11.09-8.91,2.83-15.51,8.89-23.41,14.58,8.24-17.2,20.11-29.79,35.36-39.41-16.4,2.54-30.92,10.55-47.05,14.97,9.16-10.32,21.19-16.27,32.34-24.81-3.74-.36-6.08,1.7-8.78.95,3.05-3.43,6.67-6.1,10.87-8.26-10.72-.13-21.1,1.58-31.51,3.26,12.73-8.61,26.97-12.54,42.71-14.32-11.23-5.8-21.65-11.44-33.73-13.14,14.52-3.26,28.98-3.04,43.61-.89-8.75-6.58-18.08-11.92-29.95-14.11,8.44-2.29,15.69-1.42,23.73.88-2.36-3.34-5.84-3.88-7.6-6.83,14.37,3.23,25.7,11.76,39.17,18.79-6.66-10.18-13.9-17.88-24.12-24.43,9.83,1.44,16.87,5.94,23.82,10.32,7.97,5.02,14.32,11.83,19.43,19.79.72,1.12,1.24,3.16,3.16,2.5,1.25-.43,1.56-1.92,1.76-3.32.27-1.89.93-3.72,1.69-6.54,7.85,12.5,3.28,20.95-7.27,27.96,3.86-.17,6.33-2.59,10.16-2.29-8.49,6.38-16.2,12.76-23.15,21.82,4.88-1.4,7.97-4.38,12.59-3.94-8.31,6.26-15.64,12.76-22.04,21.73,3.49-.75,5.27-3.05,8.31-2.5-6.47,5.06-11.59,10.81-15.69,17.53,1.85-.26,3.27-1.07,4.8-1.56,1.34-.42,2.53-2.16,4.24-.77-7.95,6.44-14.33,14.09-19.56,23.15,3.14.59,4.93-2.44,7.7-1.43-7.63,8.9-12.43,19.25-16.89,30.63,5.09-2.09,8.68-5.37,13.15-6.41-8.77,9.31-13.25,20.37-15.29,33.19,5.29-1.31,8.95-4.39,13.98-7.11-8.51,14.06-11.71,27.93-8.18,43.6,4.75-3.25,6.89-8.08,10.39-12.29-2.58,13.93-1.33,25.24,3.51,31.9,1.12-5.14,6.26-7.79,6.49-14.16,4.43,8.84,5.75,17.67,13.35,24.59-1.72-6.36-1.61-11.61-1.58-16.96,3.36,8.03,8.04,14.93,14.25,21.97-2.67-9.37-4.39-17.93-1.71-26.76,2.95,15.61,12.08,25.23,27.26,28.99,4.64,1.15,9.46,1.58,14.37-3.19ZM773.35,454.69c20.74,11.01,22.09,30.63,21.87,51.62,14.89-11.43,9.54-24.44,4.23-38.64,10.91,9.78,21.75,17.72,23.38,32.55-3.2-.49-5.66-3.23-9.16-2.2,6.49,13.98,2.44,27.84.97,42.28-3.07-2.7-3.76-6.4-7.54-8.35,1.91,13.78,8,25.85,11.04,38.81-7.22-9.13-12.18-19.91-21.45-28.06-2.67,13.49,5.19,22.28,11.91,31.56-5.96-2.73-10.33-6.92-14.02-11.9-.56-.76-.95-2.05-2.13-1.77-1.09.26-1.07,1.47-1.28,2.46-3.57,16.58.95,34.22,20.71,41.75,4.13,1.57,5.1,1,4.65-3.38-.56-5.52-.93-11.11-3.55-16.3,3.65,1.87,5.73,5.02,7.74,8.11,6.43,9.88,15.68,17.16,23.53,25.73,4.58,5.01,6.78,11.75,5.32,16.68-5.31-7.9-14.35-16.72-24.4-17.21,1.87,2.53,3.75,5.07,6.16,8.33-20.08-4.29-32.45-15.88-39.47-33.64-2.91-7.36-5.85-14.7-9.19-23.08-3.36,14.84,0,28.1,2.62,42.33-6.21-6.35-9.84-13.31-13.21-21.77-5.3,15.88-6.62,31.23-7.29,48,3.84-6,5.8-11.82,11.36-16.27-1.04,10.7,4.03,19.22,5.38,29.43,5.01-8.75,8.24-16.99,6.81-27.63,16.34,19.16,16.2,40.16,13.5,61.98,2.53-5.09,5.07-10.18,8.29-16.66.79,14.29,5.14,25.7,14.87,34.8-.61-3.86-1.23-7.73-1.84-11.59,8.29,13.75,17.53,27,19.23,43.64,7.81-18.14,4.37-34.86-5.43-51.02,8.98,8.47,18.43,16.47,24.67,28.09.82-5.2-1.76-9.05-2.24-13.5,1.82.58,2.51,1.99,3.55,3.01,6.23,6.13,8.5,15.2,16.31,20.42,5.19,3.47,10.07,7.55,15.33,11.06,7.02,4.69,13.9,9.59,20.84,14.41-6.09-.05-11.62-1.61-17.96-3.39,4.39,6.01,8.75,10.97,11.86,16.85,3.8,7.19,6.05,14.78,5.07,18.73-8.81-6.79-14.57-16.97-25.21-23.46,5.56,15.8,13.41,28.78,24.5,39.9,10.3,10.34,12.97,29.17,6.42,42.25-1.9,3.8-4.41,7.1-8.9,8.71.11-2.41,2.09-3.93,1.16-6.29-.67.71-1.21,1.32-1.79,1.89-3.7,3.63-3.93,3.58-7.23.16-.6-.62-1.8-.74-2.76-.93-9.5-1.92-17.01,1.83-23.03,8.72-5.62,6.42-6.23,16.99-1.88,22.65.42-1.57.85-3.17,1.27-4.76,2.35-8.89,6.18-12.24,14.84-10.45,13.08,2.71,22.61-1.98,30.62-11.8,10.63-13.03,16.87-28.06,20.63-44.26,2.64-11.39,4.23-22.82.99-34.39-.06-.2.23-.5.35-.73,1.65,0,1.28,2.86,3.38,2.28-1.13-14.54-6.68-27.46-13.94-40.17,2.89,2.02,5.77,4.05,8.66,6.07-2.23-8.8-7.74-15.13-13.51-21.86,4.08.55,7.18,2.39,11.32,3.93-8.68-20.32-27.02-29.57-42.22-42.32,4.49-.07,8.6-.85,12.47-2.78,3.21-1.6,3.1-2.74.01-4.54-12.5-7.3-21.52-18.01-29.46-30.43,5.94.58,11.46,2.17,17.38-.43-10.55-7.17-17.93-16.53-25.03-27.51,4.36,1.52,7.47,3.82,11.84,3.52-5.5-9.9-10.98-19.22-16.52-28.83l11.61,7.35c-5.26-13.37-12.08-25.45-19.75-37.26,5.34,3.21,10.68,6.43,17.05,10.26-5.42-15.41-12.94-28.72-20.98-41.83,5.56,3.6,11.33,6.67,16.08,11.35-5.15-22.77-17.26-41.95-29.52-61.2,6.46,3.35,12.92,6.69,19.88,10.3-7.11-14.92-18.47-25.65-29.93-37.11,5.62.09,10.17,1.84,15.13,1.07-7.98-16.11-22.68-25.62-35.06-38.54,6.75.75,12.3,1.37,18.26,2.04-10.09-15.94-25.39-23.1-43.36-27.7,6.12-3.09,11.61-4.86,18.21-5.96-10.29-7.85-21.19-11.26-33.88-11.83,4.43-4.11,8.68-6.68,13.32-9.36-9.3-4.36-18.79-5.48-28.96-6.15,5.38-4.5,11.53-5.69,18.04-7.7-14.35-6.94-28.91-9.72-45.12-8.7,5.43-5.03,11.7-7.59,18.06-11.73-15.07-4.18-29.4-4.73-44.9-2.75,5.26-5.05,10.09-8.47,16.91-11.47-16.88-3.62-32.16-2.23-47.79,1.9,4.28-5.84,9.99-9.06,15.66-13.4-2.31-.52-3.87-1.1-5.45-1.18-11.98-.66-23.79.42-35.73,3.21,4-3.52,8-7.04,12.84-11.3-16.24,1.01-30.9,4.74-46.28,8.15,4.12-5.88,9.85-9.1,14.84-14.06-20.05.92-38.55,6.69-57.71,11.24,2.33-5.05,7.12-7.12,9.89-11.68-2.93.17-5.37-.12-7.53.52-6.76,2-14.96,2.05-16.92,11.33-.11.51-1.04,1.31-1.42,1.22-6.13-1.42-3.84,3.26-4.32,5.89-.39,2.18.84,5.43-3.52,4.85-.91-.12-1.19,1.05-1.15,1.9.4,8.14-1.21,15.94-4.86,23.93,12.29-2.15,23.41-1.42,34.11,3.24-9.91.55-19.17,3.25-28.32,6.97,14.63,2.83,29.21,5.39,44.06,12.49-10.45,2.28-18.76,5.91-26.82,10.28,11.2,1.09,21.74,3.28,31.17,9.66,9.34,6.31,16.36,14.78,23.07,24.01.79-5.63-1.17-10.52-1.84-15.7,2.39.33,3.23,2.15,4.5,3.34,12.94,12.19,25.1,25.26,40.53,34.55,6.88,4.14,12.51,9.85,17.75,17.06.13-5.19-.25-9.14-1.92-12.87-6.66-14.85-20.81-21.65-32.92-30.7,14.49,3.48,26.94,10.56,34.72,23.37,5.99,9.86,14.37,16.32,24.08,22.47-.8-8.93-5.2-15.62-9.96-22.32,8.08,4.46,15.93,8.88,20.83,17.31,4.75,8.18,7.71,16.66,6.44,27.5,13-11.71,6.33-23.74,3.58-35.49,6.23,8.79,13.08,16.98,17.22,26.94,3.38,8.15,6.87,16.31,14.17,21.95.97.75,1.72,2.47,3.25,1.62,1.14-.63.59-2.14.61-3.25.18-11.69-4.29-21.67-11.37-30.67-2.03-2.59-4.13-5.12-6.2-7.68,3.22,1.02,5.85,2.63,8.53,4.17,15.13,8.74,23.01,21.8,22.42,39.32-.19,5.73,2.6,9.04,6.16,12.74,5.28-13.37,2.38-25.08-4.91-36.36ZM305.58,568.91c-1.1-3.67-2.25-7.09-2.79-10.71-.51-3.42-1.18-6.82-1.78-10.23,6.6,14.16,15.22,26.36,29.2,36.23-5.2-9.18-9.65-17.08-11.57-26.11,8.69,13.95,20.25,24.91,34.83,34.44-3.05-7-5.7-13.11-8.36-19.22,8.54,11.28,16.86,22.61,23.97,36.17-.2-13.89.43-26.52-.52-39.19,11.6,15.64,15.68,33.04,12.03,53.27,7.42-6.58,11.46-13.79,15.53-21.01-.28,11.15-3.25,21.56-7.33,32.83,19.56-13.09,25.09-32.62,29.91-52.81,1.27,4.99,2.55,9.97,3.99,15.61,5.4-11.46,5.65-23.38,7.27-36.12,2.92,7.13,3.19,13.44,3.24,20.53,6.07-11.66,8.17-21.06,8.71-36.54,4.09,8.44,6.83,17.3,7.47,28.16,12.05-19.29,9.01-38.38,4.75-58.47,7.98,8.55,15.34,16.22,24.28,22.78,3.87-20.39-1.82-38.28-10.36-55.71,6.91,6.78,13.91,13.26,19.65,21.39,3.13-18.09.64-34.51-9.87-49.47,8.02,4.23,16.06,7.78,25.11,10.95-6.27-12.33-15.97-20.25-27.39-28.57,7.69,1.12,13.87,2.02,20.94,3.04-6.72-8.35-13.99-14.78-20.79-22.02,8.57,2.77,17.15,5.53,26.47,8.54-5.92-11.06-15.79-17.12-24.21-24.8,7.81,1.54,15.34,2.1,23.83,1.05-7.84-6.55-15.99-10.84-23.52-16.32,7.32-.26,14.44,1.35,22.16.26-7.67-8.4-19.04-9.57-28-16.04,7.05-1.7,13.2-3.17,20.53-4.94-9.7-5.14-19.06-7.43-29.07-10.79,1.69,3.59,2.93,6.22,4.17,8.85-2.76,1.42-5.34-.34-8.49.13,1.66,2.92,3.22,5.43,4.54,8.07.92,1.82,3.24,3.8,1.53,5.76-1.23,1.41-3.3-.59-5.03-.86-.62-.1-1.24-.21-2.46-.42,1.87,4.88,5.69,8.56,5.45,13.89-2.19-.27-3.99-1.66-5.99-.37,1.7,4.98,3.4,9.97,5.21,15.29-3.95-1.7-7.87.13-12.31-2.49,2.05,8.18,7.34,13.94,8.35,21.6-1.51-1.1-2.89-2-4.14-3.06-.99-.84-2.09-1.45-3.07-.51-.86.83.44,1.73.57,2.66.2,1.39,3.1,2.93.47,3.99-1.65.66-4.4,2.54-6.1-.85-.56-1.12-1.62-2.48-3.28-2.27-1.01,7.76,2.51,15.66-1.33,23.99-2.25-4.69-2.52-9.62-6.92-12.76-2.36,8.06-4.61,15.69-6.78,23.34-.26.9-.03,1.94-.03,3.16-2.6-1.57-5.18-3.02-7.64-4.66-2.12-1.41-3.45-1.09-3.77,1.49-.54,4.24-2.87,7.37-5.92,10.08-1.92,1.7-3.19,5.33-5.83,4.67-2.23-.56-.55-4.22-1.56-6.29-.05-.11-.28-.13-.83-.36-.89,1.4-1.78,2.92-2.79,4.37-3.68,5.27-8.19,9.59-14.12,12.29-1.34.61-2.86,1.31-2.55-1.01.75-5.52-1.69-3.2-3.57-1.49-4.51,4.09-9.84,6.78-15.28,9.3-.85.4-2.41,1.8-2.57-.37-.38-5.03-2.77-2.23-4.5-1.23-2.15,1.25-4.28,2.61-6.19,4.2-2.86,2.38-5.32,2.68-6.98-1.08-1.38-3.12-2.84-2.24-4.81-.65-5.36,4.32-11.65,7.04-17.75,10.06-1.49.74-3.65,2.26-4.66-.34-1.83-4.72-3.67-2.81-5.72-.34-1.16,1.4-2.48,2.71-3.43,4.25-1.39,2.24-2.36,1.68-3.52-.14-1.53-2.41-3.14-4.76-5.01-7.57-.58,1.26-.85,1.67-.97,2.12-.51,1.94,2.13,4.57.2,5.53-2.12,1.05-4.69-.88-6.87-2.06-1.16-.63-2.17-1.51-3.22-2.32-.84-.65-15.77-2.46-16.67-1.99-.15.08-.39.14-.42.25-1.09,4.13-2.22.95-3.46.08-1.78-1.25-3.93-2.64-5.95-1.5-1.8,1.01-1.68,3.37-1.4,5.39.52,3.78.88,7.58,1.5,11.34,1.42,8.64,3.7,16.99,9.08,25.83-.72-7.79-.1-14.12.4-20.53,2.57,7.13,4.16,14.53,7.16,21.48,3.05,7.06,6.41,13.89,12.57,20.52-1.17-3.53-2.11-5.82-2.66-8.2-.6-2.57-.98-5.22-1.2-7.86-.19-2.29-.04-4.6-.04-6.91,4.1,11.5,9.07,22.21,18.27,30.32ZM567.43,460.71c11.35,12.4,18.34,26.91,21.74,44.06-8.19-3.8-15.39-8.79-25.53-10.65,13.85,15.01,17.52,32.9,21.05,50.86-9.51-4.51-17.4-12.23-27.79-18.11,6.61,13.86,15.59,25.17,20.11,38.44-5.23,1.67-8.48-3.73-14.94-4.81,8.48,12.69,11.85,26.29,17.98,38.78-5.68-4.93-12.61-7.45-18.97-10.92-1.35-.74-3-2.55-4.39-1.19-1.3,1.28.23,3.1.89,4.56,6.42,14.14,10.16,28.86,9.61,45.09-6.55-5.09-12.82-9.98-19.82-15.42,1.5,5.25,2.65,9.36,3.84,13.46,1.22,4.22,2.6,8.42,1.56,13.99-3.71-9.34-9.53-15.98-15.73-23.35,1.94,18.07,16.32,28.67,23.67,44.4-6.68-4.14-12.21-7.56-18.4-11.4,0,1.85,0,2.65,0,3.44-.02,1.45.66,3.42-.84,4.09-1.79.8-2.25-1.52-3.18-2.47-2.63-2.69-5.36-5.13-9.34-6.06,10.37,12.29,18.7,25.58,22.28,41.31-6.88-6.72-15.29-11.82-21.38-19.77-4.87-6.35-12.21-9.82-20.43-12.49,3.29,7.96,7.69,14.29,13.37,19.78,4.9,4.73,8.03,10.31,9.56,17.09,2.08,9.19-.14,17.72-2.67,26.46-3.08-1.75-3.75-4.94-4.86-7.83-3.38-8.84-6.56-17.77-10.21-26.49-1.8-4.3-3.66-8.83-9.19-12.64,4.69,19.14,12.27,36.55,8.15,56.27-7.61-7.58-14.89-15.03-24.31-19.86.9,2.82,2.14,5.32,3.51,7.75,3.51,6.23,7.15,12.39,9.82,19.05,2.45,6.1,3.55,12.44,3.08,19.01-.09,1.22.17,3.12-1.35,3.45-2.01.44-1.58-1.76-2.02-2.8-4.37-10.49-10.84-19.42-19.6-26.66-1.37-1.13-2.68-2.77-5.15-2.5,4.47,11.19,13.21,19.58,16.31,31.09,3.09,11.47.66,23.05,1.63,35.22-9.3-14.89-17.58-29.63-24.7-45.09-.56,2.28-.73,4.4-.79,6.52-.26,9.67,3.18,18.61,5.58,27.75,1.83,6.98,2.56,13.93.15,21.92-11.08-15.04-14.8-32.76-23.77-47.93-.58,1.55-.73,2.98-.77,4.42-.28,9.8,3.02,18.94,5.36,28.25,3.01,11.99,2.42,23.83-1.03,36.84-4.02-10.23-10.47-17.75-14.86-26.59-.2,6.18.52,12.11.61,18.09.26,17.35-5.92,26.77-22.46,32.83,1.02-3.73,4.39-6.16,5.25-10.21-6.31.46-12.26,3.39-19.65,1.62,4.4-2.6,8.08-4.16,11.2-7.64-1.78.15-2.9.18-4,.35-2.6.41-6.26,1.77-7.48-.18-1.33-2.12,1.8-4.52,3.29-6.65.11-.16-.08-.52-.2-1.21-6,2.69-12.11,4.52-18.67,3.61-.46-1.44,1.74-1.54,1.48-2.6-4.79.22-9.51,1.28-14.94-1.1,1.75-.74,2.5-1.07,3.27-1.37.88-.35,2.08-.36,1.78-2.06-14.71-1.37-29.49-2.57-44.19.02-15.41,2.72-28.41,9.32-35.13,24.63-1.61,3.67-2.29,7.5-2.26,11.44,11.74-22.96,51.9-36.88,73.12-29.46-30.31,2.25-47.54,17.82-40.55,37.7,4.54-17.15,18.32-23.06,32.43-27.81,15.38-5.19,36.07-1.7,41.33,5.86-14.39-6.5-28.44-8.08-40.86,3.97-6.53,6.33-8.74,16.57-5.47,23.1,1.71-5.86,4.1-10.95,9.04-14.23,6.81-4.53,14.2-5.32,21.91-2.82,18.15,5.88,36.2,5.45,54.19-.64,11.36-3.84,21.01-9.89,27.07-20.72,1.24-2.21,1.29-6.37,3.95-6.17,2.36.18.41,4.41,2.24,6.9,7.07-7.12,13.39-14.44,15.27-25.29,2.95,2.65,2.63,6.05,4.59,8.61,5.31-6.21,8.77-13.36,11.38-21.13,2.05,2.3,1.15,5.27,3.24,7.35,5.14-8.24,6.2-17.84,9.97-27.12.91,3.07,1.6,5.41,2.58,8.69,6.05-10.15,9.13-20.01,9.19-32.27,2.2,6.49,3.52,11.6,4.39,17.91,6.34-11.34,7.41-22.91,8.85-35.37,1.79,4.79,3.21,8.58,4.7,12.56,10.25-13.14,12.45-27.77,10.35-43.55,3,4.31,5.42,8.88,9.34,13.05,2.18-10.44-1.13-19.98-1.8-30.54,4.02,4.49,6.58,8.71,10.69,11.91,1.92-10.43-1.56-19.97-2.44-30.54,3.74,4.34,4.6,9.55,8.77,13.31,2.68-17.84-3.07-34.08-5.08-50.96,3.68,7.41,7.36,14.82,11.39,22.96,5.81-20.3,2.3-38.93-4.22-57.71,6.38,7.14,12.77,14.29,19.45,21.77-.1-9.63-.67-18.56-3.89-27.04-3.22-8.45-7.38-16.45-13.53-24.98,7.83,3.59,13.93,7.35,21.23,9.7-2.35-13.18-9.16-23.99-12.67-36.27,3.94,3.31,7.88,6.62,12.77,10.74-2.29-14.46-8.82-25.73-15.96-38,6.71,5.15,12.42,9.53,18.75,14.4-2.58-13.59-10.19-24.01-17.48-36.17,5.42,3.61,9.53,6.36,13.64,9.1-8.61-21.52-20.18-40.13-42.97-48.67ZM196.61,820.07c-6.01-2.19-11.98-4.28-13.86-11.4-.29-1.09-1.48-1.07-2.44-1.39-2.83-.93-5.7-1.84-8.36-3.15-16.7-8.23-29.21-20.16-33.44-39.03-.96-4.28-1.62-8.81,1.64-12.87,6.95,25.47,25.84,37.45,48.91,44.95-8.29-6.05-12.16-15-16.3-23.85-3.8-8.12-7.05-16.58-12.25-23.95-2.54-3.6-4.84-6.95-5.05-11.6-.16-3.51-1.67-6.49-6.72-5.3,1.97-4.19,3.86-7.56,7.8-9.24,7.37-3.13,15.98,1.56,18.34,10.34,1.37,5.1,1.92,10.41,3.21,15.53,2.34,9.25,6.82,17.12,15.33,22.23.56-.91.18-1.44-.06-2.07-3.97-10.33-2.56-19.83,4.3-28.57,1.53-1.95,2.93-4.08,4.03-6.31,9.04-18.31-.21-37.61-17.57-40.15-1.08-.16-2.11-.7-3.79-1.28,7.96-3.23,14.93-7.18,23.84-8.05-5.35-2.56-10.97-2.15-16.55-5.11,11.45-.63,20.48-7.04,31.16-6.05-4.95-2.9-10.67-2.62-16.17-5.8,10.05-3.68,19.87-4.27,29.52-6.77-7.4-1.79-14.81-3.58-23.59-5.7,12.4-3.51,23.7-5.36,35.62-7.4-6.98-4.32-14.32-5.27-20.87-8.38,12.8.57,25.25-2.25,38.69-2.79-8.83-7.16-18.28-9.2-28.82-8.53,10.25-7.51,21.69-11.83,31.57-19.58-11.54-1.34-21.81.97-31.41,6.85,4.82-6.91,11.68-11.54,16.79-17.82,5.05-6.21,9.14-12.99,11.72-21.26-7.39,3.87-13.77,7.86-19.59,13.69,4.76-12.4,9.1-24.25,12.93-36.78-4.01.9-5.11,4.62-8.34,5.68,3.5-5.03,3.9-10.92,5.29-16.5.42-1.68,1.84-3.96-.21-4.82-1.96-.83-4.35-1.48-6.72.7-9,8.25-14.19,18.71-18.17,29.95-.24.69-.39,1.63.67,2.2,4.54-1.68,9.15-3.38,14.89-5.5-9.68,10.99-16.45,22.26-21.85,35.45,5.02-1.34,9.22-2.45,13.66-3.63-8.57,12.32-20.83,20.59-30.59,32.03,5.49.28,9.9.5,14.31.72-12.9,6.95-25.49,13.62-35.91,24.21,3.86,1.05,7.24,1.97,11.56,3.15-11.17,4.96-21.62,9.13-29.91,17.98,4.32,1.19,8.27-.14,12.12.57-.21.46-.27.81-.47.97-.78.61-1.58,1.23-2.44,1.73-15.29,8.87-27.45,21.01-36.64,36.01-14.04,22.92-21.37,47.46-15.35,74.42,5.12,22.94,20.17,37.2,43.05,45.92-20.15-21.05-41.59-40-36.55-72.17.95,17.69,10.11,30.6,23.81,40.67,13.41,9.86,27.84,17.22,45.21,16.82ZM639.31,752.31c-1.24,9.55-.31,18.71-1.44,28.58-3.49-3.74-5.09-7.92-9.67-10.53.45,1.96.74,3.05.96,4.16,1.53,7.52,2.49,15.09,2.1,22.79-.05.91.25,2.32-1,2.42-.79.06-1.71-.82-2.47-1.41-.58-.46.43-2.09-1.43-1.91,0,3.22-.09,6.37.02,9.52.14,4.18-.25,8.28-1.16,12.36-.34,1.54-.83,3.23-2.32,3.57-2.03.47-1.96-1.76-2.61-2.93-1.18-2.14-2.07-4.49-5.21-5.81,1.65,4.82,1.14,9.33,1.58,13.77,1.11,11.31-3.9,19.12-14.68,23.32-9.41,3.66-19.34,4.61-29.29,5.39-8.56.67-14.68-4.23-20.98-9.01-15.18-11.52-35.68-5.65-41.01,11.59-.93,3.01-1.46,6.02.4,9.17,4.81-11.52,11.12-14.48,22.82-11.33,6.24,1.68,12.51,3.23,19.1,3.3,18.04.18,35.74-2.32,53.02-7.2,15.07-4.26,26.2-13.62,31.51-28.75,2.56-7.28,3.56-14.97,3.56-22.97,2.72,1.58,1.93,5.17,4.41,6.31,3.01-10.06.78-19.88-1.38-30.71,4.07,3.04,3.93,7.34,7.32,10.31.96-9.89.73-19.04-.66-28.79,3.63,1.83,3.48,5.8,6.54,7.73,1.69-12.29,4.09-24.06,2.16-36.48,2.88,1.23,2.65,4.56,5.04,5.63,1.03-8.17-.59-10.09-8.02-10.1-2.72,0-3.59.19-3.07,3.53,1.19,7.59.63,15.23-1.73,23.04-1.77-3.7-2.63-7.39-5.53-10.71-.55,7.21.46,13.86-1.53,20.84-1.98-3.2-3.67-5.94-5.37-8.68ZM220.84,454.49c8.05,13.99,20.24,23.84,33.78,26.45,17.23,3.32,33.19.66,45.53-13.11,5.78-6.45,9.55-13.96,7.95-23.15-.32-1.86-.66-3.92-2.35-4.7-2.26-1.05-3.02,1.54-4.15,2.69-13.69,13.89-29.96,18.23-48.75,13.38-1.48-.38-2.89-.97-4.34-.33-9.1,3.99-18.05,2.55-27.68-1.23ZM247.43,362.06c2.9,1.32,3.36,4.96,6.87,6.28-1.43-4.2-2.64-7.72-3.89-11.38,3.71,1.69,6.14,4.66,9.85,7.81-1.71-4.09-3-7.18-4.49-10.74,4.59,1.04,6.65,4.6,10.23,7.3-6.91-15.54-19.27-20.04-31.63-12.84-8.74,5.09-15.81,23.55-14.88,33.57,2.29-1.37-1.47-8.39,5.42-5.8.78-2.36-.66-5.18,1.26-7.51,1.93,2.21,1.82,5.49,4.61,7.01.81-2.6-.41-5.21,1.1-7.51,2.59,1.61,2.49,5.01,4.89,6.75,1.8-2.4-.38-4.95.61-7.31,2.92,1.64,3.08,5.75,6.24,7.27,1.03-2.99-1.97-5.13-1.29-9.22,2.8,3.28,4.91,5.76,7.42,8.71.51-4.81-2.26-8.18-2.31-12.38ZM261.93,741.89c10.5-4.72,17.92-12.61,18.09-19.08-5.26,1.2-9.21,5.67-14.8,6.17-.12-2.03,2.07-3.06,1.13-5.23-7.26,5.58-14.75,10.52-24.16,11.25-.49-2.03,1.52-3.49.45-5.56-7.36,4.1-14.64,8.17-21.86,12.19-1.3-1.97,1-3.66-.76-5-6.4,5.44-13.02,19.19-12.42,26.11,1.17-1.91,2.18-3.59,3.22-5.26,2.57-4.08,4.97-8.5,9.72-10.32,6.58-2.52,13.28-4.72,19.05-8.98,1.36,2.63,1,5.07.58,7.49,8.66-3.21,16.62-7.3,23.08-14.26,2.08,3.93-.14,6.79-1.33,10.47ZM655.58,626.42c-5.82,13.85-15.19,24.9-26.99,33.83-4.7,3.56-5.7,8.41-7.53,13.59,22.4-7.54,35.51-25.47,34.52-47.42ZM739.72,532.09c8.2-5.32,12.54-13.41,11.85-22.25-.97-12.34-6.25-22.32-17.45-29.82,7.16,17.16,8.93,34.04,5.6,52.07ZM876.92,841.89c-9.16-4.94-20.68-2.27-28.46,6.4-6.02,6.71-7.57,19.38-3.08,25.54.18-.5.41-.95.5-1.43,1.76-9.25,5.42-16.77,16.08-18.29,1.75-.25,3.36-1.42,4.61-2.82,3.1-3.46,6.4-6.71,10.35-9.41ZM565.53,431.78c11.19,14.01,18.99,29.93,36.36,36.51-5.13-18.72-17.01-30.51-36.36-36.51ZM692.58,607.17c-5.98,15.94-16.63,27.65-29.64,37.18-4.44,3.25-5.54,7.48-7.48,12.26,23.3-8.79,37.99-29.2,37.12-49.44ZM847.81,836.84c-11.39-1.07-19.8,1.66-26.07,9.71-4.97,6.38-5.98,13.48-3.82,21.18,2.29-9.99,6.87-17.68,17.87-19.59.56-.1,1.04-.76,1.51-1.21,3.21-3.07,6.41-6.15,10.51-10.1ZM691.67,635.54c17.19-9.75,25.86-23.88,29.68-41.39-6.02,10.58-13.77,19.83-22.2,28.53-3.3,3.4-5.08,7.56-7.48,12.86ZM519.29,834.37c-14.18-1.59-36.49,18.8-33.58,31.19,2.98-5.43,5.2-11.25,10.41-14.51,8.07-5.06,16.49-9.55,23.17-16.68ZM666.37,460.33c6.41-4.81,6.29-10.6,5.11-16.42-1.42-7.02-8.92-14.37-15.73-16.03,5.13,9.99,10.91,19.75,10.61,32.45ZM710.21,469.31c3.31,3.73,5.81,7.75,7.96,11.98,2.23,4.37,3.02,9.16,3.18,14.36,5.67-4.78,7.68-10.64,5.66-15.55-2.81-6.82-9.96-11.56-16.8-10.79ZM243.89,513.78c-6.12,7.57-11.92,19.49-13.23,26.83,4.03-1.51,8.05-2.98,12.05-4.52,2.38-.91,3.02-2.63,2.72-5.16-.65-5.44-1-10.92-1.54-17.15ZM665.59,480.83c1.86,3.65,4.64,6.25,5.57,9.87.3,1.18,1.16,1.28,2.26,1.39,7.47.73,13.56,4.1,18.45,10.77-3.07-14.31-9.5-19.62-26.29-22.02ZM593.9,431.4c-2.91-12.62-18.12-24.49-30.74-24.6,9.12,9.4,20.24,16.14,30.74,24.6ZM620.47,650.42c-4.39,11.97-18,18.69-18.26,32.82,13.25-6.72,17.34-18.87,18.26-32.82ZM283.53,734.79c6.21-2.91,11.34-6.42,15.32-11.45,1.43-1.8,2.68-3.81,3.6-5.91.46-1.04.84-2.86-.51-3.61-1.22-.68-1.99.78-2.8,1.54-2.92,2.72-5.84,5.42-9.52,7.15-7.19,3.37-7.17,3.4-6.09,12.28ZM698.97,472.42c3.55-11.85.04-21.88-8.76-27.12-1.51-.9-3.57-2.46-4.94-1.13-1.79,1.74.69,3.16,1.63,4.46,5,6.96,9.77,14.02,12.08,23.79ZM760.35,488.29c4.63,12.68,8.99,24.1,7.16,37.79,7.88-10.86,4.22-27.7-7.16-37.79ZM414.52,634.06c-8.97,8.06-12.59,18.94-15.64,30.12,9.08-7.98,13.44-18.43,15.64-30.12ZM862.8,736.57c3.93,8.27,6.41,15.9,7.36,24.38,4.55-3.47,5.55-8.01,4.49-12.63-1.3-5.66-5.37-9.3-11.85-11.75ZM704.99,511.12c1.9-11.22-3.45-18.27-14.03-19.73,4.41,6.45,9.85,12.09,14.03,19.73ZM642.57,434.13c3.42-9.82-.54-18.21-9.85-21,3.28,6.99,6.47,13.79,9.85,21ZM632.17,432.49c1.21-10.44-8.02-19.07-18.09-17.18,7.22,4.45,13.39,9.81,18.09,17.18ZM520.95,820.82c5.48-1.59,9.37,1.66,14.19,2.05-1.64-5.28-3.11-10.04-4.77-15.4-3.14,4.46-5.95,8.43-9.41,13.35ZM255.54,510.28q4.54-12.75-5.03-15.46c-.23-.07-.56.19-.94.33.84,5.27,3.94,9.65,5.97,15.13ZM250.58,434.24c5.19,2.01,8.62,0,11.88-2.44,4.25-3.17,5.82-7.04,4.77-11.76-3.36,6.97-9.64,10.34-16.65,14.2ZM593.53,398.45c-.29-1.9-.4-3.86-.92-5.7-1.26-4.44-3.65-8.07-7.85-10.38-1.24-.68-2.28-.69-3.09.27-.92,1.09.26,1.76.9,2.43,3.99,4.15,7.75,8.48,10.96,13.38ZM637.57,448.03c6.64,3.21,11.44,8.46,15.89,15.88-1.44-11.06-5.74-15.13-15.89-15.88ZM688.81,520.98c-.92-9.29-5.7-14.26-12.66-13.95,4.85,3.75,8.72,8.21,12.66,13.95ZM233.6,433.95c-5.84-3.01-10.78-6.34-14.42-12.41,1.59,9.48,6.41,13.57,14.42,12.41ZM645.49,498.59c3.95,4.65,5.56,9.03,8.22,13.36-.71-6.61-2.36-9.5-8.22-13.36Z"/>
  <path class="cls-1" d="M315.92,350.85c.22-12.32,9.17-22.48,19.56-22.21,10.17.27,19.27,10.73,18.79,21.88-.55,12.62-9.66,19.44-20.72,19.76-10.22.29-17.82-8.55-17.63-19.43ZM338,341.94c.07-3.79-2.68-6.57-6.49-6.55-3.63.02-6.67,2.97-6.7,6.51-.02,3.65,2.91,6.58,6.57,6.58,3.61,0,6.55-2.91,6.61-6.54Z"/>
  <path class="cls-1" d="M209.96,356.04c0,1,.05,2,0,3-.27,5.12-.86,9.89-6.91,11.84-6.07,1.95-11.49,1.45-16.14-3.11-8.15-7.99-9.05-22.46-2.08-31.53,5.35-6.95,13.53-6.9,19.53.12,3.76,4.41,5.68,11.08,5.6,19.68ZM203.09,345.83c-.01-4.65-2.04-6.4-5.26-6.29-3.36.12-5.74,2.48-5.63,5.62.1,2.99,2.24,5.9,5.66,5.64,3.2-.24,4.99-2.81,5.23-4.98ZM191.99,339.74c-6.98,2.91-9.62,9.33-6.3,14.32.74-5.48,2.57-10.27,6.3-14.32Z"/>
  <path class="cls-1" d="M881.63,679.98c-5.29-2.25-10.93-.33-16.14-1.94-9.93-3.06-17.54-8.81-22.79-18.01-3.65-6.39-7.65-12.63-12.83-18.51,8.57,1.32,14.03,5.9,17.88,12.94,5.13,9.39,13.72,14.68,23.3,18.54,4.02,1.62,7.7,3.64,10.59,6.98Z"/>
  <path class="cls-1" d="M810.73,636.55c7.36,5.9,11.45,13.81,14.36,22.47,1.11,3.29,2.06,6.63,3.17,9.92.9,2.67,2.31,2.76,4.41.99,3.01-2.53,3.75-6.45,6.23-10.25.73,6.58,1.53,12.31-.28,17.96-.55,1.71-1.37,3.45-2.48,4.83-1.09,1.35-2.36,3.48-4.21,3.02-2.02-.5-.84-2.85-1.11-4.37-.41-2.31-.59-5.1-2.61-6.24-7.27-4.11-9.28-11.46-11.74-18.43-2.3-6.48-3.26-13.38-5.74-19.9Z"/>
  <path class="cls-1" d="M691.6,413c-7.04-14.5-16.84-26.17-31.89-32.82,16.07-.61,32.25,13.69,31.89,32.82Z"/>
  <path class="cls-1" d="M733.45,412.82c10.94,1.21,34.85,14.9,37.34,28.62-12.2-10.15-23.66-20.83-37.34-28.62Z"/>
  <path class="cls-1" d="M699.03,406.81c15.12-3.02,27.15,4.96,29.77,19.76-9.08-7.64-16.9-16.38-29.77-19.76Z"/>
  <path class="cls-1" d="M644.65,373.14c-7.62-10.32-13.89-21.38-27.88-25.09,15.38-2.6,27.84,12.86,27.88,25.09Z"/>
  <path class="cls-1" d="M861.52,685.54c9.91,5.32,20.29,9.92,28.93,18.3-10.81-.63-19.88-6.3-28.93-18.3Z"/>
  <path class="cls-1" d="M858.22,612.46c-7.63-8.89-16.37-16.71-24.81-24.85,13.12,3.27,19.29,13.7,24.81,24.85Z"/>
  <path class="cls-1" d="M612.41,376.73c-5.15-6.86-11.23-12.52-19.03-16.62,8.32-1.84,18.1,6.65,19.03,16.62Z"/>
  <path class="cls-1" d="M784.89,442.82c10.26,4.09,16.61,11.4,18.59,22.3-5.31-8.2-11.63-15.52-18.59-22.3Z"/>
  <path class="cls-1" d="M886.72,714.79c4.52,3.74,9.03,7.47,13.55,11.21l-.99,1.13c-5.59-2.51-9.94-6.44-12.56-12.34Z"/>
  <path class="cls-1" d="M736.68,400.12c9.58-2.05,18.41,1.41,21.33,8.53-6.26-6.01-13.16-8.87-21.33-8.53Z"/>
</svg>